<svg width="22" height="24" viewBox="0 0 22 24" fill="none" xmlns="http://www.w3.org/2000/svg">
  <path d="M4.99997 14.184V0H2.99997V14.184C2.41542 14.3876 1.90874 14.7682 1.5502 15.2727C1.19165 15.7773 0.999023 16.381 0.999023 17C0.999023 17.619 1.19165 18.2227 1.5502 18.7273C1.90874 19.2318 2.41542 19.6124 2.99997 19.816V24H4.99997V19.816C5.58451 19.6124 6.0912 19.2318 6.44974 18.7273C6.80828 18.2227 7.00091 17.619 7.00091 17C7.00091 16.381 6.80828 15.7773 6.44974 15.2727C6.0912 14.7682 5.58451 14.3876 4.99997 14.184V14.184ZM3.99997 18C3.80219 18 3.60885 17.9414 3.4444 17.8315C3.27995 17.7216 3.15178 17.5654 3.07609 17.3827C3.0004 17.2 2.9806 16.9989 3.01918 16.8049C3.05777 16.6109 3.15301 16.4327 3.29286 16.2929C3.43271 16.153 3.6109 16.0578 3.80488 16.0192C3.99886 15.9806 4.19993 16.0004 4.38265 16.0761C4.56538 16.1518 4.72156 16.28 4.83144 16.4444C4.94132 16.6089 4.99997 16.8022 4.99997 17C4.99997 17.2652 4.89461 17.5196 4.70708 17.7071C4.51954 17.8946 4.26519 18 3.99997 18Z" fill="black"/>
  <path d="M19 14.184V0H17V14.184C16.4154 14.3876 15.9087 14.7682 15.5502 15.2727C15.1917 15.7773 14.999 16.381 14.999 17C14.999 17.619 15.1917 18.2227 15.5502 18.7273C15.9087 19.2318 16.4154 19.6124 17 19.816V24H19V19.816C19.5845 19.6124 20.0912 19.2318 20.4497 18.7273C20.8083 18.2227 21.0009 17.619 21.0009 17C21.0009 16.381 20.8083 15.7773 20.4497 15.2727C20.0912 14.7682 19.5845 14.3876 19 14.184V14.184ZM18 18C17.8022 18 17.6088 17.9414 17.4444 17.8315C17.2799 17.7216 17.1518 17.5654 17.0761 17.3827C17.0004 17.2 16.9806 16.9989 17.0192 16.8049C17.0578 16.6109 17.153 16.4327 17.2929 16.2929C17.4327 16.153 17.6109 16.0578 17.8049 16.0192C17.9989 15.9806 18.1999 16.0004 18.3827 16.0761C18.5654 16.1518 18.7216 16.28 18.8314 16.4444C18.9413 16.6089 19 16.8022 19 17C19 17.2652 18.8946 17.5196 18.7071 17.7071C18.5195 17.8946 18.2652 18 18 18Z" fill="black"/>
  <path d="M12 4.184V0H9.99997V4.184C9.41542 4.38765 8.90874 4.76815 8.5502 5.27275C8.19165 5.77734 7.99902 6.381 7.99902 7C7.99902 7.619 8.19165 8.22266 8.5502 8.72725C8.90874 9.23185 9.41542 9.61235 9.99997 9.816V24H12V9.816C12.5845 9.61235 13.0912 9.23185 13.4497 8.72725C13.8083 8.22266 14.0009 7.619 14.0009 7C14.0009 6.381 13.8083 5.77734 13.4497 5.27275C13.0912 4.76815 12.5845 4.38765 12 4.184ZM11 8C10.8022 8 10.6088 7.94135 10.4444 7.83147C10.2799 7.72159 10.1518 7.56541 10.0761 7.38268C10.0004 7.19996 9.9806 6.99889 10.0192 6.80491C10.0578 6.61093 10.153 6.43275 10.2929 6.29289C10.4327 6.15304 10.6109 6.0578 10.8049 6.01921C10.9989 5.98063 11.1999 6.00043 11.3827 6.07612C11.5654 6.15181 11.7216 6.27998 11.8314 6.44443C11.9413 6.60888 12 6.80222 12 7C12 7.26522 11.8946 7.51957 11.7071 7.70711C11.5195 7.89464 11.2652 8 11 8Z" fill="black"/>
</svg>
