<svg xmlns="http://www.w3.org/2000/svg" xmlns:xlink="http://www.w3.org/1999/xlink" viewBox="0 0 100 125" version="1.1" x="0px" y="0px"><title>Levers 5.2</title><desc>Created with Sketch.</desc><g stroke="none" stroke-width="1" fill="none" fill-rule="evenodd"><g fill-rule="nonzero" fill="#000000"><path d="M51,33 L55,33 L55,43 L51,43 L51,71 L49,71 L49,43 L45,43 L45,33 L49,33 L49,29 L51,29 L51,33 Z M47,35 L47,41 L53,41 L53,35 L47,35 Z M33,57 L37,57 L37,67 L33,67 L33,71 L31,71 L31,67 L27,67 L27,57 L31,57 L31,29 L33,29 L33,57 Z M29,65 L35,65 L35,59 L29,59 L29,65 Z M69,48 L73,48 L73,58 L69,58 L69,71 L67,71 L67,58 L63,58 L63,48 L67,48 L67,29 L69,29 L69,48 Z M65,56 L71,56 L71,50 L65,50 L65,56 Z" transform="translate(50.000000, 50.000000) rotate(90.000000) translate(-50.000000, -50.000000) "/></g></g><text x="0" y="115" fill="#000000" font-size="5px" font-weight="bold" font-family="'Helvetica Neue', Helvetica, Arial-Unicode, Arial, Sans-serif">Created by Landan Lloyd</text><text x="0" y="120" fill="#000000" font-size="5px" font-weight="bold" font-family="'Helvetica Neue', Helvetica, Arial-Unicode, Arial, Sans-serif">from the Noun Project</text></svg>