<svg width="12" height="12" viewBox="0 0 12 12" fill="none" xmlns="http://www.w3.org/2000/svg">
  <defs>
    <clipPath id="clip0">
      <rect width="12" height="12" fill="white"/>
    </clipPath>
  </defs>
  <g clip-path="url(#clip0)">
    <path d="M10.0802 5.28022C10.0819 4.18823 9.7119 3.12818 9.03094 2.27451C8.34999 1.42085 7.39871 0.824433 6.33366 0.583414C5.2686 0.342396 4.15322 0.471136 3.17107 0.948449C2.18892 1.42576 1.39853 2.22321 0.929957 3.20955C0.461385 4.1959 0.342555 5.31238 0.593022 6.37526C0.843489 7.43813 1.44833 8.38408 2.30801 9.05742C3.16769 9.73077 4.23098 10.0914 5.32291 10.0799C6.41484 10.0685 7.47034 9.68567 8.31572 8.99446L11.3215 12.0002L12.0002 11.3215L8.99444 8.31574C9.69728 7.46034 10.0811 6.38732 10.0802 5.28022V5.28022ZM5.2802 9.12022C4.52072 9.12022 3.7783 8.89501 3.14681 8.47306C2.51533 8.05112 2.02315 7.45139 1.7325 6.74972C1.44186 6.04805 1.36582 5.27596 1.51399 4.53107C1.66215 3.78618 2.02788 3.10196 2.56491 2.56493C3.10195 2.02789 3.78617 1.66217 4.53106 1.514C5.27594 1.36584 6.04804 1.44188 6.74971 1.73252C7.45137 2.02316 8.0511 2.51534 8.47304 3.14683C8.89499 3.77831 9.1202 4.52074 9.1202 5.28022C9.11906 6.2983 8.71412 7.27435 7.99423 7.99424C7.27434 8.71414 6.29828 9.11907 5.2802 9.12022Z" fill="black"/>
  </g>
</svg>
